<?xml version="1.0" encoding="UTF-8" standalone="no"?>
<!-- Created with Inkscape (http://www.inkscape.org/) -->

<svg
   xmlns:dc="http://purl.org/dc/elements/1.1/"
   xmlns:cc="http://creativecommons.org/ns#"
   xmlns:rdf="http://www.w3.org/1999/02/22-rdf-syntax-ns#"
   xmlns:svg="http://www.w3.org/2000/svg"
   xmlns="http://www.w3.org/2000/svg"
   xmlns:xlink="http://www.w3.org/1999/xlink"
   xmlns:sodipodi="http://sodipodi.sourceforge.net/DTD/sodipodi-0.dtd"
   xmlns:inkscape="http://www.inkscape.org/namespaces/inkscape"
   width="256"
   height="256"
   id="svg2"
   version="1.1"
   inkscape:version="0.48.4 r9939"
   sodipodi:docname="Author Intrusion 256.svg">
  <defs
     id="defs4">
    <linearGradient
       id="linearGradient3870">
      <stop
         style="stop-color:#555753;stop-opacity:1;"
         offset="0"
         id="stop3872" />
      <stop
         style="stop-color:#2e3436;stop-opacity:1;"
         offset="1"
         id="stop3874" />
    </linearGradient>
    <linearGradient
       id="linearGradient3862">
      <stop
         style="stop-color:#eeeeec;stop-opacity:1;"
         offset="0"
         id="stop3864" />
      <stop
         style="stop-color:#babdb6;stop-opacity:1;"
         offset="1"
         id="stop3866" />
    </linearGradient>
    <linearGradient
       inkscape:collect="always"
       xlink:href="#linearGradient3862"
       id="linearGradient3868"
       x1="113.93796"
       y1="812.36218"
       x2="113.93796"
       y2="1036.3622"
       gradientUnits="userSpaceOnUse" />
    <linearGradient
       inkscape:collect="always"
       xlink:href="#linearGradient3870"
       id="linearGradient3876"
       x1="128.47055"
       y1="841.43549"
       x2="128.47055"
       y2="945.05042"
       gradientUnits="userSpaceOnUse"
       gradientTransform="translate(0,2)" />
    <linearGradient
       inkscape:collect="always"
       xlink:href="#linearGradient3870"
       id="linearGradient3928"
       gradientUnits="userSpaceOnUse"
       gradientTransform="translate(0,2)"
       x1="128.47055"
       y1="841.43549"
       x2="128.47055"
       y2="945.05042" />
    <linearGradient
       inkscape:collect="always"
       xlink:href="#linearGradient3870"
       id="linearGradient3930"
       gradientUnits="userSpaceOnUse"
       gradientTransform="translate(0,2)"
       x1="128.47055"
       y1="841.43549"
       x2="128.47055"
       y2="945.05042" />
    <linearGradient
       inkscape:collect="always"
       xlink:href="#linearGradient3870"
       id="linearGradient3932"
       gradientUnits="userSpaceOnUse"
       gradientTransform="translate(0,2)"
       x1="128.47055"
       y1="841.43549"
       x2="128.47055"
       y2="945.05042" />
    <linearGradient
       inkscape:collect="always"
       xlink:href="#linearGradient3862"
       id="linearGradient4181"
       gradientUnits="userSpaceOnUse"
       x1="113.93796"
       y1="812.36218"
       x2="113.93796"
       y2="1036.3622" />
    <linearGradient
       inkscape:collect="always"
       xlink:href="#linearGradient3870"
       id="linearGradient4183"
       gradientUnits="userSpaceOnUse"
       gradientTransform="translate(0,2)"
       x1="128.47055"
       y1="841.43549"
       x2="128.47055"
       y2="945.05042" />
    <linearGradient
       inkscape:collect="always"
       xlink:href="#linearGradient3870"
       id="linearGradient4185"
       gradientUnits="userSpaceOnUse"
       gradientTransform="translate(0,2)"
       x1="128.47055"
       y1="841.43549"
       x2="128.47055"
       y2="945.05042" />
    <linearGradient
       inkscape:collect="always"
       xlink:href="#linearGradient3870"
       id="linearGradient4187"
       gradientUnits="userSpaceOnUse"
       gradientTransform="translate(0,2)"
       x1="128.47055"
       y1="841.43549"
       x2="128.47055"
       y2="945.05042" />
    <linearGradient
       inkscape:collect="always"
       xlink:href="#linearGradient3862"
       id="linearGradient4729"
       gradientUnits="userSpaceOnUse"
       x1="113.93796"
       y1="812.36218"
       x2="113.93796"
       y2="1036.3622"
       gradientTransform="matrix(1.140944,0,0,1.1414969,-17.956675,-130.69217)" />
  </defs>
  <sodipodi:namedview
     id="base"
     pagecolor="#ffffff"
     bordercolor="#666666"
     borderopacity="1.0"
     inkscape:pageopacity="0.0"
     inkscape:pageshadow="2"
     inkscape:zoom="11.824255"
     inkscape:cx="237.81541"
     inkscape:cy="89.043873"
     inkscape:document-units="px"
     inkscape:current-layer="layer1"
     showgrid="false"
     showguides="true"
     inkscape:guide-bbox="true"
     guidetolerance="20"
     inkscape:window-width="1600"
     inkscape:window-height="855"
     inkscape:window-x="-4"
     inkscape:window-y="-6"
     inkscape:window-maximized="1">
    <sodipodi:guide
       orientation="1,0"
       position="16,188.43402"
       id="guide2989" />
    <sodipodi:guide
       orientation="1,0"
       position="240,204.95"
       id="guide2991" />
    <sodipodi:guide
       orientation="0,1"
       position="83.331378,240"
       id="guide2993" />
    <sodipodi:guide
       orientation="0,1"
       position="60.809,16"
       id="guide2995" />
  </sodipodi:namedview>
  <metadata
     id="metadata7">
    <rdf:RDF>
      <cc:Work
         rdf:about="">
        <dc:format>image/svg+xml</dc:format>
        <dc:type
           rdf:resource="http://purl.org/dc/dcmitype/StillImage" />
        <dc:title />
      </cc:Work>
    </rdf:RDF>
  </metadata>
  <g
     inkscape:label="Layer 1"
     inkscape:groupmode="layer"
     id="layer1"
     transform="translate(0,-796.36218)">
    <path
       style="fill:url(#linearGradient4729);fill-opacity:1;stroke:none"
       d="m 1.9741905,798.29331 c 0,84.11406 0,168.22811 0,252.34209 55.3595535,0 110.7191095,0 166.0786595,0 53.86606,0 86.14127,-40.5696 86.14127,-88.35319 0,-54.66297 0,-109.32593 0,-163.9889 -84.07331,0 -168.146619,0 -252.2199295,0 z"
       id="path3798"
       inkscape:connector-curvature="0"
       sodipodi:nodetypes="cccccc" />
    <path
       style="fill:none;stroke:#ffffff;stroke-width:2.6320312;stroke-linecap:butt;stroke-linejoin:miter;stroke-miterlimit:4;stroke-opacity:1;stroke-dasharray:none"
       d="m 2.9965689,948.55473 249.4986011,0"
       id="path3807"
       inkscape:connector-curvature="0" />
    <path
       sodipodi:nodetypes="cccccc"
       inkscape:connector-curvature="0"
       id="path3809"
       d="m 1.9741905,798.29331 c 0,84.11406 0,168.22811 0,252.34209 55.3595495,0 110.7191095,0 166.0786595,0 53.86606,0 86.14127,-40.5696 86.14127,-88.35319 0,-54.66297 0,-109.32593 0,-163.9889 -84.07331,0 -168.146619,0 -252.2199295,0 z"
       style="fill:none;stroke:#000000;stroke-width:3;stroke-miterlimit:4;stroke-opacity:1;stroke-dasharray:none" />
    <g
       style="font-size:175px;font-style:normal;font-variant:normal;font-weight:normal;font-stretch:normal;text-align:start;line-height:125%;letter-spacing:0px;word-spacing:0px;writing-mode:lr-tb;text-anchor:start;fill:url(#linearGradient4187);fill-opacity:1;stroke:#2e3436;stroke-opacity:1;font-family:Courier Prime;-inkscape-font-specification:Courier Prime"
       id="text3811"
       transform="matrix(1.140944,0,0,1.1414969,-20.238563,-130.69217)">
      <path
         d="m 119.41235,934.51526 c 1.93676,10e-6 3.30394,0.42726 4.10157,1.28174 0.85439,0.8545 1.28164,2.3641 1.28173,4.52881 -9e-5,2.16471 -0.42734,3.67431 -1.28173,4.5288 -0.79763,0.8545 -2.16481,1.28174 -4.10157,1.28174 l -5.46875,0 c -1.76603,0 -3.44653,-0.19938 -5.0415,-0.59814 -1.59513,-0.45573 -3.04777,-1.13932 -4.35791,-2.05078 -1.25333,-0.91146 -2.36417,-2.05078 -3.33252,-3.41797 -0.91153,-1.36718 -1.566643,-2.99072 -1.965332,-4.87061 -4.500395,3.93067 -9.456444,7.06381 -14.868164,9.39942 -5.411837,2.27864 -11.279344,3.41796 -17.602539,3.41797 -4.272498,-1e-5 -8.203158,-0.56967 -11.791992,-1.70899 -3.588893,-1.08235 -6.693545,-2.67741 -9.313965,-4.78516 -2.62046,-2.1647 -4.671239,-4.78514 -6.152344,-7.86132 -1.424166,-3.07616 -2.136242,-6.60806 -2.13623,-10.59571 -1.2e-5,-4.78512 0.911445,-8.8582 2.734375,-12.21923 1.879866,-3.36097 4.386374,-6.06686 7.519531,-8.11768 3.190079,-2.1077 6.864392,-3.64579 11.022949,-4.61426 4.215458,-0.96837 8.658813,-1.45259 13.330078,-1.45264 4.614207,5e-5 9.086045,0.37033 13.415527,1.11084 4.329364,0.74061 8.516371,1.82297 12.561036,3.24708 l 0,-7.26319 c -7.3e-5,-5.52566 -1.338776,-9.57025 -4.016114,-12.13379 -2.620508,-2.62037 -7.149312,-3.93059 -13.586425,-3.93066 -4.614308,7e-5 -9.257044,0.62669 -13.928223,1.87988 -4.614294,1.19636 -8.715852,3.07624 -12.304688,5.63965 -1.310248,0.96848 -2.648951,1.31028 -4.016113,1.02539 -1.36721,-0.28477 -2.67743,-1.31016 -3.930664,-3.07617 -1.253274,-1.76589 -1.765969,-3.33245 -1.538086,-4.69971 0.284812,-1.42408 1.082337,-2.62037 2.392578,-3.58887 2.221657,-1.65194 4.671198,-3.07609 7.348633,-4.27246 2.677378,-1.25318 5.440233,-2.25008 8.288574,-2.99072 2.905234,-0.79745 5.838988,-1.36711 8.80127,-1.70898 3.019157,-0.39869 5.981393,-0.59807 8.886719,-0.59815 10.196875,8e-5 17.801848,2.39266 22.814939,7.17774 5.06991,4.78522 7.6049,11.8775 7.60498,21.27685 l 0,34.00879 c -8e-5,4.50034 1.8798,6.7505 5.63965,6.75049 l 2.99072,0 M 97.9646,912.55481 c -3.930733,-1.31019 -8.11774,-2.27861 -12.561036,-2.90527 -4.443414,-0.62659 -8.886769,-0.93991 -13.330078,-0.93995 -3.076215,4e-5 -5.924519,0.25639 -8.544922,0.76905 -2.563511,0.51273 -4.785189,1.33874 -6.665039,2.47803 -1.879912,1.08238 -3.36103,2.53502 -4.443359,4.35791 -1.025416,1.76597 -1.538111,3.93069 -1.538086,6.49414 -2.5e-5,4.15854 1.424127,7.40561 4.272461,9.74121 2.905241,2.27865 6.949834,3.41798 12.133789,3.41797 6.09533,10e-6 11.678007,-1.25325 16.748047,-3.75977 5.069924,-2.56346 9.71266,-6.00991 13.928223,-10.33936 l 0,-9.31396"
         style="fill:url(#linearGradient4183)"
         id="path3879"
         inkscape:connector-curvature="0" />
      <path
         d="m 176.83423,856.32922 -21.875,0 c -1.93687,9e-5 -3.33254,-0.42715 -4.18701,-1.28173 -0.79755,-0.8544 -1.19631,-2.36401 -1.19629,-4.52881 -2e-5,-2.16462 0.39874,-3.67422 1.19629,-4.52881 0.85447,-0.85439 2.25014,-1.28164 4.18701,-1.28174 l 56.56738,0 c 1.93677,10e-5 3.30395,0.42735 4.10156,1.28174 0.85441,0.85459 1.28166,2.36419 1.28174,4.52881 -8e-5,2.1648 -0.42733,3.67441 -1.28174,4.52881 -0.79761,0.85458 -2.16479,1.28182 -4.10156,1.28173 l -21.875,0 0,78.18604 23.58399,0 c 1.93676,10e-6 3.30395,0.42726 4.10156,1.28174 0.8544,0.8545 1.28165,2.3641 1.28174,4.52881 -9e-5,2.16471 -0.42734,3.67431 -1.28174,4.5288 -0.79761,0.8545 -2.1648,1.28174 -4.10156,1.28174 l -59.98536,0 c -1.93687,0 -3.33253,-0.42724 -4.18701,-1.28174 -0.79754,-0.85449 -1.1963,-2.36409 -1.19629,-4.5288 -1e-5,-2.16471 0.39875,-3.67431 1.19629,-4.52881 0.85448,-0.85448 2.25014,-1.28173 4.18701,-1.28174 l 23.58399,0 0,-78.18604"
         style="fill:url(#linearGradient4185)"
         id="path3881"
         inkscape:connector-curvature="0" />
    </g>
    <g
       transform="matrix(1.2740233,0,0,1.0222608,-20.238563,-130.69217)"
       style="font-size:111.66396332px;font-style:normal;font-variant:normal;font-weight:normal;font-stretch:normal;text-align:start;line-height:125%;letter-spacing:0px;word-spacing:0px;writing-mode:lr-tb;text-anchor:start;fill:#cc0000;fill-opacity:1;stroke:none;font-family:Purisa;-inkscape-font-specification:Purisa"
       id="text3815">
      <path
         d="m 47.064107,1071.3937 c 6.55092,-0.6699 17.531199,-1.0049 32.940869,-1.005 12.729621,10e-5 21.178854,0.2234 25.347724,0.67 4.1687,0.4467 6.73696,1.4517 7.70481,3.0149 0.81878,1.2656 1.22821,2.345 1.2283,3.2383 -9e-5,2.01 -2.79169,3.3872 -8.37479,4.1316 -5.50884,0.7444 -16.56356,1.3027 -33.164202,1.6749 l -38.077411,0.8933 0.55832,-5.6948 c 0.297756,-2.6055 1.042182,-4.2804 2.233279,-5.0249 1.191065,-0.7444 4.392095,-1.3771 9.603101,-1.8983"
         id="path3917"
         inkscape:connector-curvature="0" />
    </g>
    <g
       transform="matrix(1.5772301,0,0,0.82574128,-20.238563,-130.69217)"
       style="font-size:102.65712738px;font-style:normal;font-variant:normal;font-weight:normal;font-stretch:normal;text-align:start;line-height:125%;letter-spacing:0px;word-spacing:0px;writing-mode:lr-tb;text-anchor:start;fill:#cc0000;fill-opacity:1;stroke:none;font-family:Lint McCree Intl BB;-inkscape-font-specification:Lint McCree Intl BB"
       id="text3819">
      <path
         d="m 92.08032,1356.7135 c 0,-1.5399 -0.410629,-2.7717 -1.129228,-3.4903 -1.437199,-1.4372 -5.440835,-2.1558 -12.113541,-2.1558 -4.619567,0 -10.984321,0.5132 -18.991569,1.6425 -9.033818,1.2319 -15.398573,1.9505 -18.991569,2.0531 -4.003624,0.1027 -6.980686,0.2053 -8.93117,0.2053 -2.669082,0.308 -4.003628,2.1558 -4.003628,5.5435 0,4.6196 1.642518,7.186 4.927542,7.8019 2.566426,0.5133 5.748803,0.7186 9.547113,0.7186 5.646137,0 11.600262,-0.6159 17.86234,-1.9504 6.262079,-1.3346 13.14012,-1.9505 20.428769,-1.9505 4.619566,0 7.493971,-0.2053 8.417884,-0.7186 1.950484,-0.9239 2.977057,-3.4904 2.977057,-7.6993"
         id="path3920"
         inkscape:connector-curvature="0" />
    </g>
    <g
       transform="matrix(1.5208413,0,0,0.85635764,-20.238563,-130.69217)"
       style="font-size:112.60194397px;font-style:normal;font-variant:normal;font-weight:normal;font-stretch:normal;text-align:start;line-height:125%;letter-spacing:0px;word-spacing:0px;writing-mode:lr-tb;text-anchor:start;fill:#cc0000;fill-opacity:1;stroke:none;font-family:Hired Goons BB;-inkscape-font-specification:Hired Goons BB"
       id="text3823">
      <path
         d="m 93.947655,1332.8509 c 0,-2.8151 -1.351226,-4.7293 -4.05367,-5.7427 -1.576426,-0.563 -4.053674,-0.9009 -7.54433,-0.9009 -4.616675,0 -9.458569,0.5631 -14.413049,1.8017 -7.093916,1.9142 -14.413056,2.815 -21.732175,2.815 -1.238621,0 -3.152857,-0.3378 -5.7427,-1.0134 -2.589842,-0.6756 -4.391477,-1.0134 -5.630097,-1.0134 -3.490657,0 -5.292291,2.815 -5.292291,8.4451 0,3.8285 1.01342,5.6301 3.152854,5.5175 l 0.675612,0 c 3.040249,-0.2252 10.809799,-1.0134 23.308602,-2.3646 9.683758,-1.126 17.453308,-1.689 23.421205,-1.689 l 6.193107,0.2252 c 3.603258,0 7.656932,-2.4773 7.656932,-6.0805"
         id="path3923"
         inkscape:connector-curvature="0" />
    </g>
    <g
       style="font-size:18px;font-style:normal;font-variant:normal;font-weight:bold;font-stretch:normal;text-align:start;line-height:125%;letter-spacing:0px;word-spacing:0px;writing-mode:lr-tb;text-anchor:start;fill:#cc0000;fill-opacity:1;stroke:none;font-family:Purisa;-inkscape-font-specification:Purisa Bold"
       id="text3846"
       transform="matrix(1.140944,0,0,1.1414969,-20.238563,-130.69217)">
      <path
         d="m 116.52828,912.17923 c 0.216,1e-5 0.408,0.09 0.576,0.27 0.18,0.18 0.27,0.456 0.27,0.828 0,0.132 -0.012,0.33 -0.036,0.594 -0.024,0.264 -0.036,0.558 -0.036,0.882 0,0.312 0.018,0.876 0.054,1.692 0.036,0.804 0.114,1.746 0.234,2.826 0.132,1.08 0.294,1.692 0.486,1.836 0.06,0.036 0.12,0.054 0.18,0.054 0.24,0 0.63599,-0.216 1.188,-0.648 0.71999,-0.552 1.41599,-1.434 2.088,-2.646 0.68399,-1.212 1.15799,-2.424 1.422,-3.636 0.20399,-0.924 0.38399,-1.53 0.54,-1.818 0.16799,-0.28799 0.38999,-0.43199 0.666,-0.432 0.21599,10e-6 0.38399,0.066 0.504,0.198 0.13199,0.13201 0.19799,0.306 0.198,0.522 -1e-5,0.168 -0.09,0.84 -0.27,2.016 -0.16801,1.176 -0.25201,2.022 -0.252,2.538 -1e-5,0.708 0.14999,1.596 0.45,2.664 0.31199,1.068 0.46799,1.68 0.468,1.836 -0.036,0.264 -0.15001,0.45 -0.342,0.558 -0.12001,0.072 -0.25201,0.108 -0.396,0.108 -0.31201,0 -0.57601,-0.234 -0.792,-0.702 -0.20401,-0.48 -0.38401,-1.038 -0.54,-1.674 -0.15601,-0.636 -0.28801,-1.038 -0.396,-1.206 -0.036,0.036 -0.084,0.096 -0.144,0.18 -0.048,0.072 -0.11401,0.168 -0.198,0.288 -0.072,0.108 -0.13801,0.204 -0.198,0.288 -0.55201,0.816 -1.19401,1.524 -1.926,2.124 -0.72001,0.588 -1.36201,0.88199 -1.926,0.882 -0.864,-10e-6 -1.446,-0.27 -1.746,-0.81 -0.3,-0.54 -0.546,-1.698 -0.738,-3.474 -0.084,-0.756 -0.126,-1.752 -0.126,-2.988 0,-1.128 0.054,-1.932 0.162,-2.412 0.108,-0.49199 0.3,-0.73799 0.576,-0.738"
         id="path3884"
         inkscape:connector-curvature="0" />
      <path
         d="m 130.80594,912.03523 c -0.38401,0.024 -0.91201,0.096 -1.584,0.216 -0.66001,0.10801 -1.10401,0.16201 -1.332,0.162 -0.51601,10e-6 -0.77401,-0.20399 -0.774,-0.612 -10e-6,-0.32399 0.22799,-0.56999 0.684,-0.738 0.45599,-0.16799 0.99599,-0.29999 1.62,-0.396 0.63599,-0.096 1.04399,-0.19199 1.224,-0.288 0.096,-0.096 0.14399,-0.35399 0.144,-0.774 -1e-5,-0.43199 -0.054,-0.99599 -0.162,-1.692 -0.10801,-0.69599 -0.16201,-1.32599 -0.162,-1.89 -1e-5,-0.38399 0.10199,-0.66599 0.306,-0.846 0.20399,-0.19199 0.42599,-0.28799 0.666,-0.288 0.26399,10e-6 0.44999,0.10801 0.558,0.324 0.06,0.18001 0.16199,0.96601 0.306,2.358 0.14399,1.38001 0.23399,2.17801 0.27,2.394 0.096,-0.012 0.41399,-0.06 0.954,-0.144 0.55199,-0.096 0.97199,-0.14399 1.26,-0.144 0.40799,10e-6 0.69599,0.066 0.864,0.198 0.16799,0.13201 0.25199,0.27601 0.252,0.432 -10e-6,0.22801 -0.15601,0.42001 -0.468,0.576 -0.31201,0.15601 -0.87601,0.33601 -1.692,0.54 l -1.026,0.162 0.144,2.736 c 0.096,1.692 0.26399,3.276 0.504,4.752 0.23999,1.476 0.35999,2.328 0.36,2.556 -1e-5,0.528 -0.27601,0.792 -0.828,0.792 -0.32401,0 -0.56401,-0.06 -0.72,-0.18 -0.36001,-0.324 -0.54001,-1.002 -0.54,-2.034 -1e-5,-0.42 -0.024,-0.846 -0.072,-1.278 -0.048,-0.444 -0.13201,-1.128 -0.252,-2.052 -0.10801,-0.936 -0.21001,-1.902 -0.306,-2.898 -0.12001,-1.248 -0.18601,-1.89599 -0.198,-1.944"
         id="path3886"
         inkscape:connector-curvature="0" />
      <path
         d="m 138.73775,920.17123 c 0,-0.972 -0.12,-2.904 -0.36,-5.796 -0.228,-2.90399 -0.342,-4.78799 -0.342,-5.652 0,-0.68399 0.048,-1.09799 0.144,-1.242 0.204,-0.33599 0.414,-0.50399 0.63,-0.504 0.324,1e-5 0.528,0.25201 0.612,0.756 0.096,0.49201 0.216,1.80001 0.36,3.924 0.084,1.14 0.15,2.07 0.198,2.79 l 0.09,1.242 c 0.34799,-0.6 1.03199,-1.326 2.052,-2.178 1.03199,-0.864 1.75199,-1.29599 2.16,-1.296 0.40799,10e-6 0.80999,0.17401 1.206,0.522 0.39599,0.348 0.65399,0.732 0.774,1.152 0.10799,0.384 0.16199,1.794 0.162,4.23 l 0,0.378 c -1e-5,2.34 -0.24001,3.51 -0.72,3.51 -0.25201,0 -0.41401,-0.186 -0.486,-0.558 -0.06,-0.372 -0.10801,-1.14 -0.144,-2.304 -0.012,-0.384 -0.024,-0.684 -0.036,-0.9 -0.072,-2.28 -0.22801,-3.738 -0.468,-4.374 l -0.198,-0.558 -0.864,0.72 c -0.61201,0.504 -1.16401,1.086 -1.656,1.746 -0.49201,0.66 -0.82801,1.242 -1.008,1.746 -0.084,0.3 -0.17401,0.882 -0.27,1.746 -0.084,0.864 -0.19801,1.584 -0.342,2.16 -0.144,0.576 -0.354,0.864 -0.63,0.864 -0.12,0 -0.27,-0.072 -0.45,-0.216 -0.276,-0.216 -0.414,-0.852 -0.414,-1.908"
         id="path3888"
         inkscape:connector-curvature="0" />
      <path
         d="m 150.50694,913.76323 c 1.00799,-0.864 1.86599,-1.43399 2.574,-1.71 0.71999,-0.27599 1.61999,-0.41399 2.7,-0.414 1.66799,10e-6 2.71198,0.46801 3.132,1.404 0.23998,0.528 0.35998,1.182 0.36,1.962 -2e-5,1.236 -0.30002,2.496 -0.9,3.78 -0.58801,1.284 -1.33801,2.184 -2.25,2.7 -0.88801,0.492 -1.83001,0.738 -2.826,0.738 -1.46401,0 -2.58001,-0.432 -3.348,-1.296 -0.54001,-0.6 -0.89401,-1.11 -1.062,-1.53 -0.15601,-0.432 -0.23401,-1.026 -0.234,-1.782 -1e-5,-1.5 0.61799,-2.784 1.854,-3.852 m 3.258,6.966 c 0.98399,0 1.88999,-0.624 2.718,-1.872 0.83999,-1.26 1.25999,-2.688 1.26,-4.284 -1e-5,-0.168 -0.018,-0.3 -0.054,-0.396 -0.024,-0.096 -0.054,-0.162 -0.09,-0.198 -0.036,-0.048 -0.10201,-0.108 -0.198,-0.18 -0.43201,-0.312 -0.88801,-0.468 -1.368,-0.468 -0.072,0 -0.17401,0.012 -0.306,0.036 -0.12001,0.012 -0.30601,0.036 -0.558,0.072 -0.24001,0.024 -0.50401,0.048 -0.792,0.072 -0.39601,0.036 -0.72001,0.114 -0.972,0.234 -0.24001,0.108 -0.55201,0.324 -0.936,0.648 -0.72001,0.612 -1.23601,1.176 -1.548,1.692 -0.30001,0.504 -0.45001,1.056 -0.45,1.656 -1e-5,0.876 0.30599,1.596 0.918,2.16 0.61199,0.552 1.40399,0.828 2.376,0.828"
         id="path3890"
         inkscape:connector-curvature="0" />
      <path
         d="m 168.45519,913.09723 c 0.22799,0 0.42599,0.054 0.594,0.162 0.16799,0.096 0.27599,0.192 0.324,0.288 0.06,0.096 0.09,0.18 0.09,0.252 -1e-5,0.24 -0.27601,0.462 -0.828,0.666 -0.73201,0.276 -1.53001,0.954 -2.394,2.034 -0.85201,1.08 -1.36801,2.094 -1.548,3.042 -0.22801,1.212 -0.42001,2.016 -0.576,2.412 -0.15601,0.408 -0.38401,0.61199 -0.684,0.612 -0.12001,-1e-5 -0.22801,-0.018 -0.324,-0.054 -0.084,-0.024 -0.15601,-0.078 -0.216,-0.162 -0.06,-0.084 -0.10801,-0.156 -0.144,-0.216 -0.036,-0.06 -0.072,-0.156 -0.108,-0.288 -0.024,-0.144 -0.042,-0.246 -0.054,-0.306 -1e-5,-0.072 -0.012,-0.186 -0.036,-0.342 -0.012,-0.168 -0.018,-0.27 -0.018,-0.306 -0.28801,-2.808 -0.43201,-5.166 -0.432,-7.074 -1e-5,-0.396 0.024,-0.702 0.072,-0.918 0.048,-0.228 0.16799,-0.426 0.36,-0.594 0.11999,-0.10799 0.25199,-0.16199 0.396,-0.162 0.15599,10e-6 0.28799,0.066 0.396,0.198 0.10799,0.12001 0.16199,0.282 0.162,0.486 -1e-5,0.444 0.06,1.074 0.18,1.89 0.13199,0.804 0.25199,1.434 0.36,1.89 0.096,-0.132 0.23399,-0.336 0.414,-0.612 0.45599,-0.744 1.09199,-1.41 1.908,-1.998 0.81599,-0.6 1.51799,-0.9 2.106,-0.9"
         id="path3892"
         inkscape:connector-curvature="0" />
    </g>
    <g
       style="font-size:18px;font-style:normal;font-variant:normal;font-weight:bold;font-stretch:normal;text-align:start;line-height:125%;letter-spacing:0px;word-spacing:0px;writing-mode:lr-tb;text-anchor:start;fill:#cc0000;fill-opacity:1;stroke:none;font-family:Purisa;-inkscape-font-specification:Purisa Bold"
       id="text3850"
       transform="matrix(1.140944,0,0,1.1414969,-20.238563,-130.69217)">
      <path
         d="m 143.54686,963.93443 c 0.19199,-0.108 0.38999,-0.162 0.594,-0.162 0.25199,0 0.46799,0.072 0.648,0.216 0.19199,0.144 0.28799,0.33 0.288,0.558 -1e-5,0.348 -0.25801,0.654 -0.774,0.918 -0.50401,0.264 -1.39801,0.582 -2.682,0.954 -0.792,0.288 -1.47,0.432 -2.034,0.432 -0.072,0 -0.198,-0.018 -0.378,-0.054 -0.18,-0.024 -0.402,-0.072 -0.666,-0.144 -0.264,-0.06 -0.492,-0.168 -0.684,-0.324 -0.18,-0.156 -0.27,-0.342 -0.27,-0.558 0,-0.276 0.072,-0.462 0.216,-0.558 0.144,-0.096 0.384,-0.144 0.72,-0.144 0.504,0 1.104,-0.126 1.8,-0.378 l 0.936,-0.342 -0.162,-3.078 c -0.108,-2.15999 -0.162,-3.87599 -0.162,-5.148 l 0,-1.566 -0.324,0.054 c -0.972,0.16801 -1.68,0.25201 -2.124,0.252 -0.864,10e-6 -1.296,-0.19199 -1.296,-0.576 0,-0.15599 0.072,-0.29399 0.216,-0.414 0.156,-0.13199 0.384,-0.25199 0.684,-0.36 0.312,-0.10799 0.618,-0.20399 0.918,-0.288 0.3,-0.084 0.678,-0.18599 1.134,-0.306 0.456,-0.11999 0.84,-0.22799 1.152,-0.324 0.16799,-0.072 0.74399,-0.10799 1.728,-0.108 1.00799,10e-6 1.61399,0.078 1.818,0.234 0.22799,0.19201 0.34199,0.42601 0.342,0.702 -10e-6,0.28801 -0.13201,0.49801 -0.396,0.63 -0.25201,0.13201 -0.68401,0.22801 -1.296,0.288 l -0.342,0.036 0.036,2.826 c 0.06,3.792 0.17999,6.036 0.36,6.732"
         id="path3898"
         inkscape:connector-curvature="0" />
      <path
         d="m 149.48799,957.11243 c -1e-5,-0.62399 0.19799,-0.93599 0.594,-0.936 0.26399,0.012 0.43799,0.17401 0.522,0.486 0.084,0.31201 0.20399,1.18801 0.36,2.628 0.036,0.32401 0.066,0.576 0.09,0.756 l 0.252,2.052 0.198,-0.594 c 0.25199,-0.78 0.46799,-1.35 0.648,-1.71 0.19199,-0.35999 0.53999,-0.86999 1.044,-1.53 0.97199,-1.28399 1.79399,-1.92599 2.466,-1.926 0.44399,10e-6 0.82799,0.24601 1.152,0.738 0.38399,0.54001 0.61799,1.08001 0.702,1.62 0.096,0.54001 0.16199,1.776 0.198,3.708 0.024,1.224 0.036,1.968 0.036,2.232 -1e-5,0.792 -0.054,1.332 -0.162,1.62 -0.10801,0.276 -0.33001,0.414 -0.666,0.414 -0.22801,0 -0.37801,-0.06 -0.45,-0.18 -0.072,-0.132 -0.10801,-0.39 -0.108,-0.774 -1e-5,-0.18 0.012,-0.552 0.036,-1.116 0.024,-0.564 0.036,-1.032 0.036,-1.404 -1e-5,-1.02 -0.042,-1.974 -0.126,-2.862 -0.084,-0.88799 -0.18001,-1.44599 -0.288,-1.674 -0.048,-0.096 -0.10801,-0.18599 -0.18,-0.27 -0.072,-0.096 -0.13801,-0.16799 -0.198,-0.216 -0.048,-0.048 -0.084,-0.072 -0.108,-0.072 -0.19201,10e-6 -0.58801,0.40201 -1.188,1.206 -0.58801,0.804 -1.08601,1.626 -1.494,2.466 -0.42001,0.888 -0.70201,1.536 -0.846,1.944 -0.13201,0.408 -0.24001,0.96 -0.324,1.656 -0.13201,1.116 -0.24001,1.734 -0.324,1.854 -0.06,0.072 -0.12601,0.108 -0.198,0.108 -0.18001,-0.024 -0.37201,-0.15 -0.576,-0.378 -0.10801,-0.12 -0.19201,-0.27 -0.252,-0.45 -0.048,-0.192 -0.09,-0.48 -0.126,-0.864 -0.036,-0.396 -0.066,-0.816 -0.09,-1.26 -0.024,-0.456 -0.072,-1.11 -0.144,-1.962 -0.072,-0.864 -0.16201,-1.758 -0.27,-2.682 -0.14401,-1.43999 -0.21601,-2.31599 -0.216,-2.628"
         id="path3900"
         inkscape:connector-curvature="0" />
      <path
         d="m 163.84974,956.68043 c -0.38401,0.024 -0.91201,0.096 -1.584,0.216 -0.66001,0.10801 -1.10401,0.16201 -1.332,0.162 -0.51601,10e-6 -0.774,-0.20399 -0.774,-0.612 0,-0.32399 0.22799,-0.56999 0.684,-0.738 0.45599,-0.16799 0.99599,-0.29999 1.62,-0.396 0.63599,-0.096 1.04399,-0.19199 1.224,-0.288 0.096,-0.096 0.14399,-0.35399 0.144,-0.774 -1e-5,-0.43199 -0.054,-0.99599 -0.162,-1.692 -0.10801,-0.69599 -0.16201,-1.32599 -0.162,-1.89 -1e-5,-0.38399 0.10199,-0.66599 0.306,-0.846 0.20399,-0.19198 0.42599,-0.28798 0.666,-0.288 0.26399,2e-5 0.44999,0.10802 0.558,0.324 0.06,0.18001 0.16199,0.96601 0.306,2.358 0.14399,1.38001 0.23399,2.17801 0.27,2.394 0.096,-0.012 0.41399,-0.06 0.954,-0.144 0.55199,-0.096 0.97199,-0.14399 1.26,-0.144 0.40799,10e-6 0.69599,0.066 0.864,0.198 0.16799,0.13201 0.25199,0.27601 0.252,0.432 -1e-5,0.22801 -0.15601,0.42001 -0.468,0.576 -0.31201,0.15601 -0.87601,0.33601 -1.692,0.54 l -1.026,0.162 0.144,2.736 c 0.096,1.692 0.26399,3.276 0.504,4.752 0.23999,1.476 0.35999,2.328 0.36,2.556 -1e-5,0.528 -0.27601,0.792 -0.828,0.792 -0.32401,0 -0.56401,-0.06 -0.72,-0.18 -0.36001,-0.324 -0.54001,-1.002 -0.54,-2.034 -1e-5,-0.42 -0.024,-0.846 -0.072,-1.278 -0.048,-0.444 -0.13201,-1.128 -0.252,-2.052 -0.10801,-0.936 -0.21001,-1.90199 -0.306,-2.898 -0.12001,-1.24799 -0.18601,-1.89599 -0.198,-1.944"
         id="path3902"
         inkscape:connector-curvature="0" />
      <path
         d="m 178.22555,957.74243 c 0.22799,10e-6 0.42599,0.054 0.594,0.162 0.16799,0.096 0.27599,0.19201 0.324,0.288 0.06,0.096 0.09,0.18001 0.09,0.252 -1e-5,0.24001 -0.27601,0.46201 -0.828,0.666 -0.73201,0.27601 -1.53001,0.954 -2.394,2.034 -0.85201,1.08 -1.36801,2.094 -1.548,3.042 -0.22801,1.212 -0.42001,2.016 -0.576,2.412 -0.15601,0.408 -0.384,0.612 -0.684,0.612 -0.12,0 -0.228,-0.018 -0.324,-0.054 -0.084,-0.024 -0.156,-0.078 -0.216,-0.162 -0.06,-0.084 -0.108,-0.156 -0.144,-0.216 -0.036,-0.06 -0.072,-0.156 -0.108,-0.288 -0.024,-0.144 -0.042,-0.246 -0.054,-0.306 0,-0.072 -0.012,-0.186 -0.036,-0.342 -0.012,-0.168 -0.018,-0.27 -0.018,-0.306 -0.288,-2.808 -0.432,-5.166 -0.432,-7.074 0,-0.39599 0.024,-0.70199 0.072,-0.918 0.048,-0.22799 0.168,-0.42599 0.36,-0.594 0.12,-0.10799 0.252,-0.16199 0.396,-0.162 0.156,1e-5 0.288,0.066 0.396,0.198 0.108,0.12001 0.162,0.28201 0.162,0.486 0,0.44401 0.06,1.07401 0.18,1.89 0.13199,0.804 0.25199,1.434 0.36,1.89 0.096,-0.132 0.23399,-0.336 0.414,-0.612 0.45599,-0.744 1.09199,-1.40999 1.908,-1.998 0.81599,-0.59999 1.51799,-0.89999 2.106,-0.9"
         id="path3904"
         inkscape:connector-curvature="0" />
      <path
         d="m 182.5838,956.82443 c 0.216,10e-6 0.408,0.09 0.576,0.27 0.18,0.18001 0.27,0.45601 0.27,0.828 0,0.13201 -0.012,0.33001 -0.036,0.594 -0.024,0.26401 -0.036,0.55801 -0.036,0.882 0,0.31201 0.018,0.876 0.054,1.692 0.036,0.804 0.114,1.746 0.234,2.826 0.132,1.08 0.29399,1.692 0.486,1.836 0.06,0.036 0.11999,0.054 0.18,0.054 0.23999,0 0.63599,-0.216 1.188,-0.648 0.71999,-0.552 1.41599,-1.434 2.088,-2.646 0.68399,-1.212 1.15799,-2.424 1.422,-3.636 0.20399,-0.92399 0.38399,-1.52999 0.54,-1.818 0.16799,-0.28799 0.38999,-0.43199 0.666,-0.432 0.21599,10e-6 0.38399,0.066 0.504,0.198 0.13199,0.13201 0.19799,0.30601 0.198,0.522 -1e-5,0.16801 -0.09,0.84001 -0.27,2.016 -0.16801,1.176 -0.25201,2.022 -0.252,2.538 -1e-5,0.708 0.14999,1.596 0.45,2.664 0.31199,1.068 0.46799,1.68 0.468,1.836 -0.036,0.264 -0.15001,0.45 -0.342,0.558 -0.12001,0.072 -0.25201,0.108 -0.396,0.108 -0.31201,0 -0.57601,-0.234 -0.792,-0.702 -0.20401,-0.48 -0.38401,-1.038 -0.54,-1.674 -0.15601,-0.636 -0.28801,-1.038 -0.396,-1.206 -0.036,0.036 -0.084,0.096 -0.144,0.18 -0.048,0.072 -0.11401,0.168 -0.198,0.288 -0.072,0.108 -0.13801,0.204 -0.198,0.288 -0.55201,0.816 -1.19401,1.524 -1.926,2.124 -0.72001,0.588 -1.36201,0.882 -1.926,0.882 -0.864,0 -1.446,-0.27 -1.746,-0.81 -0.3,-0.54 -0.546,-1.698 -0.738,-3.474 -0.084,-0.756 -0.126,-1.752 -0.126,-2.988 0,-1.12799 0.054,-1.93199 0.162,-2.412 0.108,-0.49199 0.3,-0.73799 0.576,-0.738"
         id="path3906"
         inkscape:connector-curvature="0" />
      <path
         d="m 193.83745,965.32043 c 0,-0.204 0.054,-0.378 0.162,-0.522 0.108,-0.156 0.24,-0.234 0.396,-0.234 0.3,0 0.564,0.21 0.792,0.63 0.132,0.252 0.42,0.492 0.864,0.72 0.444,0.216 0.858,0.324 1.242,0.324 0.48,0 0.918,-0.264 1.314,-0.792 0.408,-0.54 0.612,-0.954 0.612,-1.242 0,-0.048 -0.018,-0.114 -0.054,-0.198 -0.036,-0.096 -0.138,-0.222 -0.306,-0.378 -0.156,-0.156 -0.36,-0.27 -0.612,-0.342 -0.408,-0.12 -0.852,-0.27 -1.332,-0.45 -0.48,-0.192 -0.834,-0.312 -1.062,-0.36 -0.36,-0.072 -0.834,-0.324 -1.422,-0.756 -0.588,-0.432 -0.882,-0.888 -0.882,-1.368 0,-0.48 0.342,-1.09799 1.026,-1.854 0.684,-0.75599 1.53,-1.24199 2.538,-1.458 l 1.8,-0.162 c 0.324,10e-6 0.57,0.042 0.738,0.126 0.168,0.072 0.378,0.25201 0.63,0.54 0.408,0.46801 0.612,0.81001 0.612,1.026 0,0.30001 -0.156,0.45001 -0.468,0.45 -0.264,10e-6 -0.534,-0.13799 -0.81,-0.414 -0.264,-0.28799 -0.594,-0.43199 -0.99,-0.432 -0.54,10e-6 -1.104,0.15601 -1.692,0.468 -0.576,0.30001 -1.032,0.61801 -1.368,0.954 -0.336,0.324 -0.504,0.558 -0.504,0.702 0,0.096 0.066,0.21 0.198,0.342 0.144,0.12 0.378,0.264 0.702,0.432 0.336,0.168 0.732,0.318 1.188,0.45 1.26,0.372 2.13,0.738 2.61,1.098 0.48,0.36 0.72,0.864 0.72,1.512 0,0.564 -0.102,1.074 -0.306,1.53 -0.168,0.396 -0.498,0.804 -0.99,1.224 -0.492,0.432 -0.996,0.648 -1.512,0.648 -0.372,0 -0.858,-0.054 -1.458,-0.162 -0.588,-0.096 -1.044,-0.216 -1.368,-0.36 -0.264,-0.132 -0.498,-0.366 -0.702,-0.702 -0.204,-0.348 -0.306,-0.678 -0.306,-0.99"
         id="path3908"
         inkscape:connector-curvature="0" />
      <path
         d="m 204.27605,956.26643 c 0.204,-0.14399 0.402,-0.21599 0.594,-0.216 0.192,10e-6 0.354,0.078 0.486,0.234 0.192,0.36001 0.34799,1.40401 0.468,3.132 0.13199,1.728 0.19799,3.342 0.198,4.842 -1e-5,1.08 -0.036,1.692 -0.108,1.836 -0.24001,0.192 -0.498,0.288 -0.774,0.288 -0.42,0 -0.678,-0.126 -0.774,-0.378 -0.06,-0.192 -0.156,-1.44 -0.288,-3.744 -0.12,-2.316 -0.18,-3.86399 -0.18,-4.644 0,-0.73199 0.126,-1.18199 0.378,-1.35 m -0.198,-4.212 c 0.024,-0.22799 0.12,-0.41399 0.288,-0.558 0.18,-0.14399 0.354,-0.21599 0.522,-0.216 0.168,10e-6 0.384,0.078 0.648,0.234 0.26399,0.15601 0.39599,0.36601 0.396,0.63 -1e-5,0.28801 -0.072,0.54601 -0.216,0.774 -0.144,0.22801 -0.336,0.34201 -0.576,0.342 -0.252,10e-6 -0.492,-0.11399 -0.72,-0.342 -0.228,-0.23999 -0.342,-0.52799 -0.342,-0.864"
         id="path3910"
         inkscape:connector-curvature="0" />
      <path
         d="m 210.44527,958.40843 c 1.00799,-0.86399 1.86599,-1.43399 2.574,-1.71 0.71999,-0.27599 1.61999,-0.41399 2.7,-0.414 1.66799,10e-6 2.71199,0.46801 3.132,1.404 0.23999,0.52801 0.35999,1.18201 0.36,1.962 -1e-5,1.236 -0.30001,2.496 -0.9,3.78 -0.58801,1.284 -1.33801,2.184 -2.25,2.7 -0.88801,0.492 -1.83001,0.738 -2.826,0.738 -1.46401,0 -2.58001,-0.432 -3.348,-1.296 -0.54,-0.6 -0.894,-1.11 -1.062,-1.53 -0.156,-0.432 -0.234,-1.026 -0.234,-1.782 0,-1.5 0.618,-2.78399 1.854,-3.852 m 3.258,6.966 c 0.98399,0 1.88999,-0.624 2.718,-1.872 0.83999,-1.26 1.25999,-2.688 1.26,-4.284 -1e-5,-0.16799 -0.018,-0.29999 -0.054,-0.396 -0.024,-0.096 -0.054,-0.16199 -0.09,-0.198 -0.036,-0.048 -0.10201,-0.10799 -0.198,-0.18 -0.43201,-0.31199 -0.88801,-0.46799 -1.368,-0.468 -0.072,10e-6 -0.17401,0.012 -0.306,0.036 -0.12001,0.012 -0.30601,0.036 -0.558,0.072 -0.24001,0.024 -0.50401,0.048 -0.792,0.072 -0.39601,0.036 -0.72001,0.11401 -0.972,0.234 -0.24001,0.10801 -0.55201,0.32401 -0.936,0.648 -0.72001,0.61201 -1.23601,1.176 -1.548,1.692 -0.30001,0.504 -0.45001,1.056 -0.45,1.656 -1e-5,0.876 0.30599,1.596 0.918,2.16 0.61199,0.552 1.40399,0.828 2.376,0.828"
         id="path3912"
         inkscape:connector-curvature="0" />
      <path
         d="m 222.50752,957.11243 c -1e-5,-0.62399 0.19799,-0.93599 0.594,-0.936 0.26399,0.012 0.43799,0.17401 0.522,0.486 0.084,0.31201 0.20399,1.18801 0.36,2.628 0.036,0.32401 0.066,0.576 0.09,0.756 l 0.252,2.052 0.198,-0.594 c 0.25199,-0.78 0.46799,-1.35 0.648,-1.71 0.19199,-0.35999 0.53999,-0.86999 1.044,-1.53 0.97199,-1.28399 1.79399,-1.92599 2.466,-1.926 0.44399,10e-6 0.82799,0.24601 1.152,0.738 0.38399,0.54001 0.61799,1.08001 0.702,1.62 0.096,0.54001 0.16199,1.776 0.198,3.708 0.024,1.224 0.036,1.968 0.036,2.232 -1e-5,0.792 -0.054,1.332 -0.162,1.62 -0.10801,0.276 -0.33001,0.414 -0.666,0.414 -0.22801,0 -0.37801,-0.06 -0.45,-0.18 -0.072,-0.132 -0.10801,-0.39 -0.108,-0.774 -1e-5,-0.18 0.012,-0.552 0.036,-1.116 0.024,-0.564 0.036,-1.032 0.036,-1.404 -1e-5,-1.02 -0.042,-1.974 -0.126,-2.862 -0.084,-0.88799 -0.18001,-1.44599 -0.288,-1.674 -0.048,-0.096 -0.10801,-0.18599 -0.18,-0.27 -0.072,-0.096 -0.13801,-0.16799 -0.198,-0.216 -0.048,-0.048 -0.084,-0.072 -0.108,-0.072 -0.19201,10e-6 -0.58801,0.40201 -1.188,1.206 -0.58801,0.804 -1.08601,1.626 -1.494,2.466 -0.42001,0.888 -0.70201,1.536 -0.846,1.944 -0.13201,0.408 -0.24001,0.96 -0.324,1.656 -0.13201,1.116 -0.24001,1.734 -0.324,1.854 -0.06,0.072 -0.12601,0.108 -0.198,0.108 -0.18001,-0.024 -0.37201,-0.15 -0.576,-0.378 -0.10801,-0.12 -0.19201,-0.27 -0.252,-0.45 -0.048,-0.192 -0.09,-0.48 -0.126,-0.864 -0.036,-0.396 -0.066,-0.816 -0.09,-1.26 -0.024,-0.456 -0.072,-1.11 -0.144,-1.962 -0.072,-0.864 -0.16201,-1.758 -0.27,-2.682 -0.14401,-1.43999 -0.21601,-2.31599 -0.216,-2.628"
         id="path3914"
         inkscape:connector-curvature="0" />
    </g>
    <g
       transform="matrix(-1.8245272,0,0,-0.71382,-20.238563,-130.69217)"
       style="font-size:94.74241638px;font-style:normal;font-variant:normal;font-weight:normal;font-stretch:normal;text-align:start;line-height:125%;letter-spacing:0px;word-spacing:0px;writing-mode:lr-tb;text-anchor:start;fill:#cc0000;fill-opacity:1;stroke:none;font-family:Lint McCree Intl BB;-inkscape-font-specification:Lint McCree Intl BB"
       id="text3854">
      <path
         d="m -85.466483,-1436.6063 c 0,-1.4212 -0.37897,-2.5581 -1.042166,-3.2213 -1.326393,-1.3264 -5.021354,-1.9896 -11.179605,-1.9896 -4.263406,0 -10.137446,0.4737 -17.527346,1.5159 -8.33733,1.1369 -14.21137,1.8001 -17.52735,1.8949 -3.69495,0.095 -6.44248,0.1894 -8.24259,0.1894 -2.4633,0.2843 -3.69495,1.9896 -3.69495,5.1161 0,4.2634 1.51588,6.632 4.54763,7.2005 2.36856,0.4737 5.30558,0.6632 8.81105,0.6632 5.21083,0 10.7059,-0.5685 16.48518,-1.8002 5.77928,-1.2316 12.12703,-1.8001 18.853739,-1.8001 4.263405,0 6.916197,-0.1894 7.768878,-0.6632 1.800104,-0.8526 2.74753,-3.2212 2.74753,-7.1056"
         id="path3926"
         inkscape:connector-curvature="0" />
    </g>
    <g
       transform="matrix(1.140944,0,0,-1.1414969,-20.238563,-130.69217)"
       style="font-size:69px;font-style:normal;font-variant:normal;font-weight:normal;font-stretch:normal;text-align:start;line-height:125%;letter-spacing:0px;word-spacing:0px;writing-mode:lr-tb;text-anchor:start;fill:#cc0000;fill-opacity:1;stroke:none;font-family:Whitechapel BB;-inkscape-font-specification:Whitechapel BB"
       id="text3858">
      <path
         d="m 136.45073,-927.45875 c 0,-0.552 -0.414,-1.173 -1.242,-1.794 -0.759,-0.69 -1.173,-1.242 -1.173,-1.587 l 0.138,-2.139 c 0,-1.518 -0.207,-2.277 -0.621,-2.277 -1.725,0 -2.967,0.414 -3.864,1.242 -1.311,1.173 -2.346,1.932 -2.967,2.208 -5.589,2.415 -8.418,4.347 -8.418,5.796 0,0.414 0.276,0.621 0.897,0.621 1.104,0 2.898,-0.828 3.174,-1.725 0.897,-0.621 2.277,-1.518 4.071,-2.691 2.208,-1.311 3.588,-2.001 4.071,-2.001 1.242,0 1.863,0.759 1.863,2.208 0,2.001 0.069,3.036 0.138,3.243 0.276,0.897 1.173,1.311 2.76,1.311 0.759,0 1.173,-0.828 1.173,-2.415"
         id="path3895"
         inkscape:connector-curvature="0" />
    </g>
  </g>
</svg>
