<?xml version="1.0" encoding="UTF-8" standalone="no"?>
<!-- Created with Inkscape (http://www.inkscape.org/) -->

<svg
   xmlns:dc="http://purl.org/dc/elements/1.1/"
   xmlns:cc="http://creativecommons.org/ns#"
   xmlns:rdf="http://www.w3.org/1999/02/22-rdf-syntax-ns#"
   xmlns:svg="http://www.w3.org/2000/svg"
   xmlns="http://www.w3.org/2000/svg"
   xmlns:xlink="http://www.w3.org/1999/xlink"
   xmlns:sodipodi="http://sodipodi.sourceforge.net/DTD/sodipodi-0.dtd"
   xmlns:inkscape="http://www.inkscape.org/namespaces/inkscape"
   width="16"
   height="16"
   id="svg2"
   version="1.1"
   inkscape:version="0.48.4 r9939"
   sodipodi:docname="Author Intrusion 16.svg">
  <defs
     id="defs4">
    <linearGradient
       id="linearGradient3870">
      <stop
         style="stop-color:#555753;stop-opacity:1;"
         offset="0"
         id="stop3872" />
      <stop
         style="stop-color:#2e3436;stop-opacity:1;"
         offset="1"
         id="stop3874" />
    </linearGradient>
    <linearGradient
       id="linearGradient3862">
      <stop
         style="stop-color:#eeeeec;stop-opacity:1;"
         offset="0"
         id="stop3864" />
      <stop
         style="stop-color:#babdb6;stop-opacity:1;"
         offset="1"
         id="stop3866" />
    </linearGradient>
    <linearGradient
       inkscape:collect="always"
       xlink:href="#linearGradient3870"
       id="linearGradient3876"
       x1="128.47055"
       y1="841.43549"
       x2="128.47055"
       y2="945.05042"
       gradientUnits="userSpaceOnUse"
       gradientTransform="translate(0,2)" />
    <linearGradient
       inkscape:collect="always"
       xlink:href="#linearGradient3870"
       id="linearGradient3932"
       gradientUnits="userSpaceOnUse"
       gradientTransform="translate(0,2)"
       x1="128.47055"
       y1="841.43549"
       x2="128.47055"
       y2="945.05042" />
    <linearGradient
       inkscape:collect="always"
       xlink:href="#linearGradient3870"
       id="linearGradient4771"
       gradientUnits="userSpaceOnUse"
       gradientTransform="translate(0,2)"
       x1="128.47055"
       y1="841.43549"
       x2="128.47055"
       y2="945.05042" />
    <linearGradient
       inkscape:collect="always"
       xlink:href="#linearGradient3870"
       id="linearGradient4826"
       gradientUnits="userSpaceOnUse"
       gradientTransform="translate(0,2)"
       x1="128.47055"
       y1="841.43549"
       x2="128.47055"
       y2="945.05042" />
    <linearGradient
       inkscape:collect="always"
       xlink:href="#linearGradient3870"
       id="linearGradient4850"
       gradientUnits="userSpaceOnUse"
       gradientTransform="translate(0,2)"
       x1="128.47055"
       y1="841.43549"
       x2="128.47055"
       y2="945.05042" />
    <linearGradient
       inkscape:collect="always"
       xlink:href="#linearGradient3862"
       id="linearGradient4866"
       gradientUnits="userSpaceOnUse"
       gradientTransform="matrix(0.14176812,0,0,0.14372322,13.591738,887.44114)"
       x1="113.93796"
       y1="812.36218"
       x2="113.93796"
       y2="1036.3622" />
    <linearGradient
       inkscape:collect="always"
       xlink:href="#linearGradient3862"
       id="linearGradient5223"
       gradientUnits="userSpaceOnUse"
       gradientTransform="matrix(0.14176812,0,0,0.14372322,13.591738,887.44114)"
       x1="113.93796"
       y1="812.36218"
       x2="113.93796"
       y2="1036.3622" />
    <linearGradient
       inkscape:collect="always"
       xlink:href="#linearGradient3862"
       id="linearGradient5239"
       gradientUnits="userSpaceOnUse"
       gradientTransform="matrix(0.07088406,0,0,0.0722196,14.665063,961.47436)"
       x1="113.93796"
       y1="812.36218"
       x2="113.93796"
       y2="1036.3622" />
  </defs>
  <sodipodi:namedview
     id="base"
     pagecolor="#ffffff"
     bordercolor="#666666"
     borderopacity="1.0"
     inkscape:pageopacity="0.0"
     inkscape:pageshadow="2"
     inkscape:zoom="1"
     inkscape:cx="8.0057694"
     inkscape:cy="8.0484612"
     inkscape:document-units="px"
     inkscape:current-layer="layer1"
     showgrid="false"
     showguides="true"
     inkscape:guide-bbox="true"
     guidetolerance="20"
     inkscape:window-width="1600"
     inkscape:window-height="855"
     inkscape:window-x="-4"
     inkscape:window-y="-6"
     inkscape:window-maximized="1"
     fit-margin-top="0"
     fit-margin-left="0"
     fit-margin-right="0"
     fit-margin-bottom="0">
    <sodipodi:guide
       orientation="1,0"
       position="0.26161093,172.46524"
       id="guide2989" />
    <sodipodi:guide
       orientation="1,0"
       position="224.26161,188.98122"
       id="guide2991" />
    <sodipodi:guide
       orientation="0,1"
       position="67.592989,224.03122"
       id="guide2993" />
    <sodipodi:guide
       orientation="0,1"
       position="45.070611,0.03122"
       id="guide2995" />
  </sodipodi:namedview>
  <metadata
     id="metadata7">
    <rdf:RDF>
      <cc:Work
         rdf:about="">
        <dc:format>image/svg+xml</dc:format>
        <dc:type
           rdf:resource="http://purl.org/dc/dcmitype/StillImage" />
        <dc:title></dc:title>
      </cc:Work>
    </rdf:RDF>
  </metadata>
  <g
     inkscape:label="Layer 1"
     inkscape:groupmode="layer"
     id="layer1"
     transform="translate(-15.738389,-1020.3934)">
    <path
       style="fill:url(#linearGradient5239);fill-opacity:1;stroke:none"
       d="m 15.903319,1020.2489 c 0,5.3217 0,10.6434 0,15.965 3.439354,0 6.878708,0 10.318061,0 3.346567,0 5.351747,-2.5667 5.351747,-5.5898 0,-3.4584 0,-6.9168 0,-10.3752 -5.223269,0 -10.446538,0 -15.669807,0 z"
       id="path3798"
       inkscape:connector-curvature="0"
       sodipodi:nodetypes="cccccc" />
    <path
       sodipodi:nodetypes="cccccc"
       inkscape:connector-curvature="0"
       id="path3809"
       d="m 16.22192,1020.877 c 0,5.011 0,10.0221 0,15.0329 3.299569,0 6.599137,0 9.898705,0 3.210552,0 5.134236,-2.4168 5.134236,-5.2634 0,-3.2565 0,-6.513 0,-9.7695 -5.01098,0 -10.021961,0 -15.032942,0 z"
       style="fill:none;stroke:#000000;stroke-width:0.96705949;stroke-miterlimit:4;stroke-opacity:1;stroke-dasharray:none" />
    <path
       inkscape:connector-curvature="0"
       id="path3879"
       style="font-size:175px;font-style:normal;font-variant:normal;font-weight:normal;font-stretch:normal;text-align:start;line-height:125%;letter-spacing:0px;word-spacing:0px;writing-mode:lr-tb;text-anchor:start;fill:#2e3436;fill-opacity:1;stroke:#2e3436;stroke-width:0.7338711;stroke-miterlimit:4;stroke-opacity:1;stroke-dasharray:none;font-family:Courier Prime;-inkscape-font-specification:Courier Prime"
       d="m 27.775663,1029.8157 c 0.201,0 0.342888,0.045 0.425667,0.1348 0.08867,0.091 0.133007,0.25 0.133007,0.4789 -1e-5,0.2288 -0.04434,0.3886 -0.133007,0.4789 -0.08278,0.09 -0.224667,0.1361 -0.425667,0.1361 l -0.567554,0 c -0.18328,0 -0.357686,-0.021 -0.523214,-0.063 -0.165545,-0.048 -0.316302,-0.1197 -0.45227,-0.2169 -0.130065,-0.097 -0.245357,-0.2169 -0.345854,-0.3614 -0.0946,-0.145 -0.162589,-0.3162 -0.203964,-0.5152 -0.467057,0.4158 -0.981404,0.7472 -1.543037,0.9941 -0.561649,0.2409 -1.170587,0.3614 -1.826815,0.3614 -0.443406,0 -0.851338,-0.059 -1.223791,-0.1808 -0.372459,-0.1149 -0.694664,-0.2831 -0.966616,-0.5059 -0.271954,-0.2288 -0.484787,-0.5061 -0.638497,-0.8312 -0.147803,-0.3253 -0.221703,-0.6989 -0.221703,-1.1205 0,-0.5059 0.0946,-0.9365 0.283779,-1.2919 0.195096,-0.3552 0.455223,-0.6416 0.780386,-0.8584 0.331072,-0.2228 0.712398,-0.3855 1.143976,-0.4878 0.437486,-0.1023 0.898625,-0.1536 1.383414,-0.1536 0.478869,0 0.942963,0.04 1.392282,0.1174 0.449307,0.079 0.88384,0.1928 1.303603,0.3433 l 0,-0.7679 c -10e-6,-0.5843 -0.138943,-1.012 -0.4168,-1.2831 -0.271959,-0.2772 -0.741964,-0.4155 -1.410017,-0.4155 -0.478879,0 -0.960708,0.065 -1.44549,0.1987 -0.478877,0.1265 -0.904543,0.3252 -1.276997,0.5962 -0.135985,0.1034 -0.274911,0.1391 -0.416796,0.1078 -0.141886,-0.03 -0.277868,-0.1391 -0.407931,-0.3252 -0.130065,-0.1868 -0.183275,-0.3524 -0.159624,-0.4971 0.02956,-0.1505 0.112324,-0.277 0.248304,-0.3794 0.230566,-0.1747 0.484783,-0.3252 0.762652,-0.4516 0.277862,-0.1333 0.564594,-0.238 0.8602,-0.3163 0.301508,-0.085 0.605977,-0.145 0.913406,-0.1808 0.313333,-0.042 0.620758,-0.063 0.922276,-0.063 1.058245,0 1.8475,0.253 2.367765,0.7592 0.526161,0.5057 0.789247,1.2556 0.789257,2.2496 l 0,3.596 c -10e-6,0.4757 0.195086,0.7138 0.58529,0.7138 l 0.31038,0 m -2.225875,-2.3221 c -0.407938,-0.1391 -0.842471,-0.241 -1.303603,-0.3073 -0.461143,-0.065 -0.922281,-0.099 -1.383414,-0.099 -0.319252,0 -0.614854,0.026 -0.886802,0.081 -0.266046,0.054 -0.496614,0.1422 -0.691707,0.2622 -0.1951,0.1149 -0.348813,0.268 -0.46114,0.4609 -0.106403,0.1866 -0.159625,0.4155 -0.159623,0.6865 -2e-6,0.4399 0.147797,0.7832 0.443403,1.0299 0.301508,0.241 0.721262,0.3616 1.25926,0.3616 0.632581,0 1.211959,-0.1332 1.738136,-0.3975 0.526162,-0.2713 1.007992,-0.6356 1.44549,-1.0932 l 0,-0.985" />
    <g
       transform="matrix(0.11656609,0,0,0.18021981,15.147564,839.40711)"
       style="font-size:111.66396332px;font-style:normal;font-variant:normal;font-weight:normal;font-stretch:normal;text-align:start;line-height:125%;letter-spacing:0px;word-spacing:0px;writing-mode:lr-tb;text-anchor:start;fill:#cc0000;fill-opacity:1;stroke:none;font-family:Purisa;-inkscape-font-specification:Purisa"
       id="text3815">
      <path
         d="m 47.064107,1071.3937 c 6.55092,-0.6699 17.531199,-1.0049 32.940869,-1.005 12.729621,10e-5 21.178854,0.2234 25.347724,0.67 4.1687,0.4467 6.73696,1.4517 7.70481,3.0149 0.81878,1.2656 1.22821,2.345 1.2283,3.2383 -9e-5,2.01 -2.79169,3.3872 -8.37479,4.1316 -5.50884,0.7444 -16.56356,1.3027 -33.164202,1.6749 l -38.077411,0.8933 0.55832,-5.6948 c 0.297756,-2.6055 1.042182,-4.2804 2.233279,-5.0249 1.191065,-0.7444 4.392095,-1.3771 9.603101,-1.8983"
         id="path3917"
         inkscape:connector-curvature="0" />
    </g>
  </g>
</svg>
